<svg width="140" height="28" viewBox="0 0 140 28" fill="none" xmlns="http://www.w3.org/2000/svg">
<path d="M13.3848 2.78247C13.6125 2.23494 14.3875 2.23494 14.6152 2.78247L16.9678 8.43774C17.2078 9.01446 17.7504 9.40815 18.373 9.45825L24.4785 9.94849C25.0696 9.99587 25.3097 10.7336 24.8594 11.1194L20.208 15.1038C19.7334 15.5103 19.5259 16.1482 19.6709 16.7561L21.0918 22.7141C21.2292 23.2908 20.6017 23.7468 20.0957 23.4377L14.8691 20.2444C14.3358 19.9186 13.6642 19.9186 13.1309 20.2444L7.9043 23.4377C7.39833 23.7467 6.77088 23.2908 6.9082 22.7141L8.3291 16.7561C8.47408 16.1483 8.26736 15.5104 7.79297 15.1038L3.14062 11.1184C2.69078 10.7325 2.93055 9.99586 3.52148 9.94849L9.62695 9.45825C10.2497 9.40822 10.7922 9.01448 11.0322 8.43774L13.3848 2.78247Z" stroke="#FECA1F"/>
<path d="M41.3848 2.78247C41.6125 2.23494 42.3875 2.23494 42.6152 2.78247L44.9678 8.43774C45.2078 9.01446 45.7504 9.40815 46.373 9.45825L52.4785 9.94849C53.0696 9.99587 53.3097 10.7336 52.8594 11.1194L48.208 15.1038C47.7334 15.5103 47.5259 16.1482 47.6709 16.7561L49.0918 22.7141C49.2292 23.2908 48.6017 23.7468 48.0957 23.4377L42.8691 20.2444C42.3358 19.9186 41.6642 19.9186 41.1309 20.2444L35.9043 23.4377C35.3983 23.7467 34.7709 23.2908 34.9082 22.7141L36.3291 16.7561C36.4741 16.1483 36.2674 15.5104 35.793 15.1038L31.1406 11.1184C30.6908 10.7325 30.9305 9.99586 31.5215 9.94849L37.627 9.45825C38.2497 9.40822 38.7922 9.01448 39.0322 8.43774L41.3848 2.78247Z" stroke="#FECA1F"/>
<path d="M69.3848 2.78247C69.6125 2.23494 70.3875 2.23494 70.6152 2.78247L72.9678 8.43774C73.2078 9.01446 73.7504 9.40815 74.373 9.45825L80.4785 9.94849C81.0696 9.99587 81.3097 10.7336 80.8594 11.1194L76.208 15.1038C75.7334 15.5103 75.5259 16.1482 75.6709 16.7561L77.0918 22.7141C77.2292 23.2908 76.6017 23.7468 76.0957 23.4377L70.8691 20.2444C70.3358 19.9186 69.6642 19.9186 69.1309 20.2444L63.9043 23.4377C63.3983 23.7467 62.7709 23.2908 62.9082 22.7141L64.3291 16.7561C64.4741 16.1483 64.2674 15.5104 63.793 15.1038L59.1406 11.1184C58.6908 10.7325 58.9305 9.99586 59.5215 9.94849L65.627 9.45825C66.2497 9.40822 66.7922 9.01448 67.0322 8.43774L69.3848 2.78247Z" stroke="#FECA1F"/>
<path d="M97.3848 2.78247C97.6125 2.23494 98.3875 2.23494 98.6152 2.78247L100.968 8.43774C101.208 9.01446 101.75 9.40815 102.373 9.45825L108.479 9.94849C109.07 9.99587 109.31 10.7336 108.859 11.1194L104.208 15.1038C103.733 15.5103 103.526 16.1482 103.671 16.7561L105.092 22.7141C105.229 23.2908 104.602 23.7468 104.096 23.4377L98.8691 20.2444C98.3358 19.9186 97.6642 19.9186 97.1309 20.2444L91.9043 23.4377C91.3983 23.7467 90.7709 23.2908 90.9082 22.7141L92.3291 16.7561C92.4741 16.1483 92.2674 15.5104 91.793 15.1038L87.1406 11.1184C86.6908 10.7325 86.9305 9.99586 87.5215 9.94849L93.627 9.45825C94.2497 9.40822 94.7922 9.01448 95.0322 8.43774L97.3848 2.78247Z" stroke="#FECA1F"/>
<path d="M125.385 2.78247C125.612 2.23494 126.388 2.23494 126.615 2.78247L128.968 8.43774C129.208 9.01446 129.75 9.40815 130.373 9.45825L136.479 9.94849C137.07 9.99587 137.31 10.7336 136.859 11.1194L132.208 15.1038C131.733 15.5103 131.526 16.1482 131.671 16.7561L133.092 22.7141C133.229 23.2908 132.602 23.7468 132.096 23.4377L126.869 20.2444C126.336 19.9186 125.664 19.9186 125.131 20.2444L119.904 23.4377C119.398 23.7467 118.771 23.2908 118.908 22.7141L120.329 16.7561C120.474 16.1483 120.267 15.5104 119.793 15.1038L115.141 11.1184C114.691 10.7325 114.931 9.99586 115.521 9.94849L121.627 9.45825C122.25 9.40822 122.792 9.01448 123.032 8.43774L125.385 2.78247Z" stroke="#FECA1F"/>
</svg>
