<svg width="140" height="28" viewBox="0 0 140 28" fill="none" xmlns="http://www.w3.org/2000/svg">
<path d="M12.9229 2.58997C13.3214 1.63179 14.6788 1.63179 15.0773 2.58997L17.4295 8.24529C17.5975 8.64923 17.9774 8.92523 18.4135 8.96019L24.5189 9.44966C25.5533 9.53259 25.9727 10.8235 25.1846 11.4986L20.5329 15.4833C20.2007 15.7679 20.0556 16.2145 20.1571 16.64L21.5783 22.5978C21.819 23.6073 20.7209 24.4051 19.8353 23.8642L14.6082 20.6715C14.2349 20.4435 13.7653 20.4435 13.392 20.6715L8.16489 23.8642C7.27928 24.4051 6.18115 23.6073 6.42194 22.5978L7.8431 16.64C7.94461 16.2145 7.79951 15.7679 7.46725 15.4833L2.81558 11.4986C2.02746 10.8235 2.44691 9.53259 3.48134 9.44966L9.58673 8.96019C10.0228 8.92523 10.4027 8.64923 10.5707 8.24529L12.9229 2.58997Z" fill="#FECA1F"/>
<path d="M40.9229 2.58997C41.3214 1.63179 42.6788 1.63179 43.0773 2.58997L45.4295 8.24529C45.5975 8.64923 45.9774 8.92523 46.4135 8.96019L52.5189 9.44966C53.5533 9.53259 53.9727 10.8235 53.1846 11.4986L48.5329 15.4833C48.2007 15.7679 48.0556 16.2145 48.1571 16.64L49.5783 22.5978C49.819 23.6073 48.7209 24.4051 47.8353 23.8642L42.6082 20.6715C42.2349 20.4435 41.7653 20.4435 41.392 20.6715L36.1649 23.8642C35.2793 24.4051 34.1812 23.6073 34.4219 22.5978L35.8431 16.64C35.9446 16.2145 35.7995 15.7679 35.4673 15.4833L30.8156 11.4986C30.0275 10.8235 30.4469 9.53259 31.4813 9.44966L37.5867 8.96019C38.0228 8.92523 38.4027 8.64923 38.5707 8.24529L40.9229 2.58997Z" fill="#FECA1F"/>
<path d="M68.9229 2.58997C69.3214 1.63179 70.6788 1.63179 71.0773 2.58997L73.4295 8.24529C73.5975 8.64923 73.9774 8.92523 74.4135 8.96019L80.5189 9.44966C81.5533 9.53259 81.9727 10.8235 81.1846 11.4986L76.5329 15.4833C76.2007 15.7679 76.0556 16.2145 76.1571 16.64L77.5783 22.5978C77.819 23.6073 76.7209 24.4051 75.8353 23.8642L70.6082 20.6715C70.2349 20.4435 69.7653 20.4435 69.392 20.6715L64.1649 23.8642C63.2793 24.4051 62.1812 23.6073 62.4219 22.5978L63.8431 16.64C63.9446 16.2145 63.7995 15.7679 63.4673 15.4833L58.8156 11.4986C58.0275 10.8235 58.4469 9.53259 59.4813 9.44966L65.5867 8.96019C66.0228 8.92523 66.4027 8.64923 66.5707 8.24529L68.9229 2.58997Z" fill="#FECA1F"/>
<path d="M96.9229 2.58997C97.3214 1.63179 98.6788 1.63179 99.0773 2.58997L101.429 8.24529C101.597 8.64923 101.977 8.92523 102.413 8.96019L108.519 9.44966C109.553 9.53259 109.973 10.8235 109.185 11.4986L104.533 15.4833C104.201 15.7679 104.056 16.2145 104.157 16.64L105.578 22.5978C105.819 23.6073 104.721 24.4051 103.835 23.8642L98.6082 20.6715C98.2349 20.4435 97.7653 20.4435 97.392 20.6715L92.1649 23.8642C91.2793 24.4051 90.1812 23.6073 90.4219 22.5978L91.8431 16.64C91.9446 16.2145 91.7995 15.7679 91.4673 15.4833L86.8156 11.4986C86.0275 10.8235 86.4469 9.53259 87.4813 9.44966L93.5867 8.96019C94.0228 8.92523 94.4027 8.64923 94.5707 8.24529L96.9229 2.58997Z" fill="#FECA1F"/>
<path d="M125.385 2.78247C125.612 2.23494 126.388 2.23494 126.615 2.78247L128.968 8.43774C129.208 9.01446 129.75 9.40815 130.373 9.45825L136.479 9.94849C137.07 9.99587 137.31 10.7336 136.859 11.1194L132.208 15.1038C131.733 15.5103 131.526 16.1482 131.671 16.7561L133.092 22.7141C133.229 23.2908 132.602 23.7468 132.096 23.4377L126.869 20.2444C126.336 19.9186 125.664 19.9186 125.131 20.2444L119.904 23.4377C119.398 23.7467 118.771 23.2908 118.908 22.7141L120.329 16.7561C120.474 16.1483 120.267 15.5104 119.793 15.1038L115.141 11.1184C114.691 10.7325 114.931 9.99586 115.521 9.94849L121.627 9.45825C122.25 9.40822 122.792 9.01448 123.032 8.43774L125.385 2.78247Z" fill="#FECA1F" stroke="#FECA1F"/>
</svg>
